{
  "accessors": [
    {
      "bufferView": 2,
      "componentType": 5126,
      "count": 5734,
      "max": [
        0.8128504753112793,
        -0.26877206563949585,
        0.17546312510967255
      ],
      "min": [
        -0.8128504753112793,
        -0.9464470148086548,
        -0.5734973549842834
      ],
      "type": "VEC3"
    },
    {
      "bufferView": 2,
      "byteOffset": 68808,
      "componentType": 5126,
      "count": 5734,
      "max": [
        0.9999998807907104,
        0.9698195457458496,
        0.9999969005584717
      ],
      "min": [
        -0.9999998807907104,
        -0.9945382475852966,
        -0.9999969005584717
      ],
      "type": "VEC3"
    },
    {
      "bufferView": 1,
      "componentType": 5126,
      "count": 5734,
      "max": [
        0.9900001287460327,
        0.5000001192092896
      ],
      "min": [
        0.09374718368053436,
        0.010000006295740604
      ],
      "type": "VEC2"
    },
    {
      "bufferView": 0,
      "componentType": 5125,
      "count": 29568,
      "type": "SCALAR"
    },
    {
      "bufferView": 2,
      "byteOffset": 137616,
      "componentType": 5126,
      "count": 65532,
      "max": [
        0.9873130917549133,
        0.9873130917549133,
        0.981875479221344
      ],
      "min": [
        -0.9873130917549133,
        -0.9901644587516785,
        -1.6110026836395264
      ],
      "type": "VEC3"
    },
    {
      "bufferView": 2,
      "byteOffset": 924000,
      "componentType": 5126,
      "count": 65532,
      "max": [
        1.0,
        1.0,
        1.0
      ],
      "min": [
        -1.0,
        -1.0,
        -0.9999768733978271
      ],
      "type": "VEC3"
    },
    {
      "bufferView": 1,
      "byteOffset": 45872,
      "componentType": 5126,
      "count": 65532,
      "max": [
        1.0000001192092896,
        1.0000001192092896
      ],
      "min": [
        0.0,
        0.010000006295740604
      ],
      "type": "VEC2"
    },
    {
      "bufferView": 0,
      "byteOffset": 118272,
      "componentType": 5125,
      "count": 357162,
      "type": "SCALAR"
    },
    {
      "bufferView": 2,
      "byteOffset": 1710384,
      "componentType": 5126,
      "count": 42742,
      "max": [
        0.9873130917549133,
        0.9869553446769714,
        0.981875479221344
      ],
      "min": [
        -0.9873130917549133,
        -0.9897244572639465,
        -1.583708643913269
      ],
      "type": "VEC3"
    },
    {
      "bufferView": 2,
      "byteOffset": 2223288,
      "componentType": 5126,
      "count": 42742,
      "max": [
        1.0,
        0.9999666213989258,
        1.0
      ],
      "min": [
        -1.0,
        -0.9994943141937256,
        -0.9999768733978271
      ],
      "type": "VEC3"
    },
    {
      "bufferView": 1,
      "byteOffset": 570128,
      "componentType": 5126,
      "count": 42742,
      "max": [
        1.0000001192092896,
        1.0000001192092896
      ],
      "min": [
        0.0,
        0.018786806613206863
      ],
      "type": "VEC2"
    },
    {
      "bufferView": 0,
      "byteOffset": 1546920,
      "componentType": 5125,
      "count": 221910,
      "type": "SCALAR"
    }
  ],
  "asset": {
    "extras": {
      "author": "Luall_Studio (https://sketchfab.com/luall_studio)",
      "license": "CC-BY-4.0 (http://creativecommons.org/licenses/by/4.0/)",
      "source": "https://sketchfab.com/3d-models/pacman-ghost-orange-6ee0b80463794369b147f168cb6ff350",
      "title": "Pacman Ghost orange"
    },
    "generator": "Sketchfab-11.30.0",
    "version": "2.0"
  },
  "bufferViews": [
    {
      "buffer": 0,
      "byteLength": 2434560,
      "name": "floatBufferViews",
      "target": 34963
    },
    {
      "buffer": 0,
      "byteLength": 912064,
      "byteOffset": 2434560,
      "byteStride": 8,
      "name": "floatBufferViews",
      "target": 34962
    },
    {
      "buffer": 0,
      "byteLength": 2736192,
      "byteOffset": 3346624,
      "byteStride": 12,
      "name": "floatBufferViews",
      "target": 34962
    }
  ],
  "buffers": [
    {
      "byteLength": 6082816,
      "uri": "scene.bin"
    }
  ],
  "materials": [
    {
      "doubleSided": true,
      "name": "Materiais.001",
      "pbrMetallicRoughness": {
        "baseColorFactor": [
          0.0,
          0.0,
          0.0,
          1.0
        ],
        "metallicFactor": 0.0
      }
    },
    {
      "doubleSided": true,
      "name": "Materiais",
      "pbrMetallicRoughness": {
        "baseColorFactor": [
          1.0,
          0.114727,
          0.0,
          1.0
        ],
        "metallicFactor": 0.0,
        "roughnessFactor": 0.7125218126212234
      }
    }
  ],
  "meshes": [
    {
      "name": "Esfera UV.002_Materiais.001_0",
      "primitives": [
        {
          "attributes": {
            "NORMAL": 1,
            "POSITION": 0,
            "TEXCOORD_0": 2
          },
          "indices": 3,
          "material": 0,
          "mode": 4
        }
      ]
    },
    {
      "name": "Esfera UV.002_Materiais_0",
      "primitives": [
        {
          "attributes": {
            "NORMAL": 5,
            "POSITION": 4,
            "TEXCOORD_0": 6
          },
          "indices": 7,
          "material": 1,
          "mode": 4
        }
      ]
    },
    {
      "name": "Esfera UV.002_Materiais_0",
      "primitives": [
        {
          "attributes": {
            "NORMAL": 9,
            "POSITION": 8,
            "TEXCOORD_0": 10
          },
          "indices": 11,
          "material": 1,
          "mode": 4
        }
      ]
    }
  ],
  "nodes": [
    {
      "children": [
        1
      ],
      "matrix": [
        1.0,
        0.0,
        0.0,
        0.0,
        0.0,
        2.220446049250313e-16,
        -1.0,
        0.0,
        0.0,
        1.0,
        2.220446049250313e-16,
        0.0,
        0.0,
        0.0,
        0.0,
        1.0
      ],
      "name": "Sketchfab_model"
    },
    {
      "children": [
        2
      ],
      "matrix": [
        1.0,
        0.0,
        0.0,
        0.0,
        0.0,
        0.0,
        1.0,
        0.0,
        0.0,
        -1.0,
        0.0,
        0.0,
        0.0,
        0.0,
        0.0,
        1.0
      ],
      "name": "2b70f75d47e74d0f88263dfc55e7eb1a.fbx"
    },
    {
      "children": [
        3
      ],
      "name": "RootNode"
    },
    {
      "children": [
        4,
        5,
        6
      ],
      "matrix": [
        100.0,
        0.0,
        0.0,
        0.0,
        0.0,
        -1.629206793918314e-05,
        -99.99999999999868,
        0.0,
        0.0,
        99.99999999999868,
        -1.629206793918314e-05,
        0.0,
        0.0,
        0.0,
        0.0,
        1.0
      ],
      "name": "Esfera UV.002"
    },
    {
      "mesh": 0,
      "name": "Esfera UV.002_Materiais.001_0"
    },
    {
      "mesh": 1,
      "name": "Esfera UV.002_Materiais_0"
    },
    {
      "mesh": 2,
      "name": "Esfera UV.002_Materiais_0"
    }
  ],
  "scene": 0,
  "scenes": [
    {
      "name": "Sketchfab_Scene",
      "nodes": [
        0
      ]
    }
  ]
}
