{
  "accessors": [
    {
      "bufferView": 2,
      "componentType": 5126,
      "count": 19712,
      "max": [
        0.8128504753112793,
        -0.26877206563949585,
        0.17546312510967255
      ],
      "min": [
        -0.8128504753112793,
        -0.9464470148086548,
        -0.5734973549842834
      ],
      "type": "VEC3"
    },
    {
      "bufferView": 2,
      "byteOffset": 236544,
      "componentType": 5126,
      "count": 19712,
      "max": [
        0.9995148777961731,
        0.9777294993400574,
        0.9992660880088806
      ],
      "min": [
        -0.9995148777961731,
        -0.9940297603607178,
        -0.9992660880088806
      ],
      "type": "VEC3"
    },
    {
      "bufferView": 1,
      "componentType": 5126,
      "count": 19712,
      "max": [
        0.9900001287460327,
        0.5000001192092896
      ],
      "min": [
        0.09374718368053436,
        0.010000006295740604
      ],
      "type": "VEC2"
    },
    {
      "bufferView": 0,
      "componentType": 5125,
      "count": 29568,
      "type": "SCALAR"
    },
    {
      "bufferView": 2,
      "byteOffset": 473088,
      "componentType": 5126,
      "count": 65534,
      "max": [
        0.5145801305770874,
        0.9676534533500671,
        0.20999984443187714
      ],
      "min": [
        -0.98592609167099,
        -0.9736935496330261,
        -1.6110026836395264
      ],
      "type": "VEC3"
    },
    {
      "bufferView": 2,
      "byteOffset": 1259496,
      "componentType": 5126,
      "count": 65534,
      "max": [
        0.9995436668395996,
        0.9994050860404968,
        0.9998719096183777
      ],
      "min": [
        -0.999657392501831,
        -0.9994038343429565,
        -0.9998180270195007
      ],
      "type": "VEC3"
    },
    {
      "bufferView": 1,
      "byteOffset": 157696,
      "componentType": 5126,
      "count": 65534,
      "max": [
        1.0000001192092896,
        1.0000001192092896
      ],
      "min": [
        0.0,
        0.010000006295740604
      ],
      "type": "VEC2"
    },
    {
      "bufferView": 0,
      "byteOffset": 118272,
      "componentType": 5125,
      "count": 98361,
      "type": "SCALAR"
    },
    {
      "bufferView": 2,
      "byteOffset": 2045904,
      "componentType": 5126,
      "count": 65532,
      "max": [
        0.979402482509613,
        0.9873130917549133,
        0.981875479221344
      ],
      "min": [
        -0.9873130321502686,
        -0.9901644587516785,
        -1.6110026836395264
      ],
      "type": "VEC3"
    },
    {
      "bufferView": 2,
      "byteOffset": 2832288,
      "componentType": 5126,
      "count": 65532,
      "max": [
        0.999657392501831,
        0.9997395873069763,
        0.9944120049476624
      ],
      "min": [
        -0.9997164011001587,
        -0.9998070597648621,
        -0.999424159526825
      ],
      "type": "VEC3"
    },
    {
      "bufferView": 1,
      "byteOffset": 681968,
      "componentType": 5126,
      "count": 65532,
      "max": [
        1.0000001192092896,
        1.0000001192092896
      ],
      "min": [
        0.0,
        0.49999991059303284
      ],
      "type": "VEC2"
    },
    {
      "bufferView": 0,
      "byteOffset": 511716,
      "componentType": 5125,
      "count": 98337,
      "type": "SCALAR"
    },
    {
      "bufferView": 2,
      "byteOffset": 3618672,
      "componentType": 5126,
      "count": 65534,
      "max": [
        0.9873130321502686,
        0.9873130917549133,
        0.981875479221344
      ],
      "min": [
        -0.9867430925369263,
        -0.9901644587516785,
        -1.6110026836395264
      ],
      "type": "VEC3"
    },
    {
      "bufferView": 2,
      "byteOffset": 4405080,
      "componentType": 5126,
      "count": 65534,
      "max": [
        0.9997164011001587,
        0.9997395873069763,
        0.9944120645523071
      ],
      "min": [
        -0.999657392501831,
        -0.9998070597648621,
        -0.9994240999221802
      ],
      "type": "VEC3"
    },
    {
      "bufferView": 1,
      "byteOffset": 1206224,
      "componentType": 5126,
      "count": 65534,
      "max": [
        1.0000001192092896,
        1.0000001192092896
      ],
      "min": [
        0.0,
        0.49999991059303284
      ],
      "type": "VEC2"
    },
    {
      "bufferView": 0,
      "byteOffset": 905064,
      "componentType": 5125,
      "count": 98313,
      "type": "SCALAR"
    },
    {
      "bufferView": 2,
      "byteOffset": 5191488,
      "componentType": 5126,
      "count": 65532,
      "max": [
        0.98592609167099,
        0.9873130917549133,
        0.981875479221344
      ],
      "min": [
        -0.9873130917549133,
        -0.9901644587516785,
        -1.6110026836395264
      ],
      "type": "VEC3"
    },
    {
      "bufferView": 2,
      "byteOffset": 5977872,
      "componentType": 5126,
      "count": 65532,
      "max": [
        0.9995855093002319,
        0.9997395873069763,
        0.9944121241569519
      ],
      "min": [
        -0.9997164011001587,
        -0.9998070597648621,
        -0.9963036775588989
      ],
      "type": "VEC3"
    },
    {
      "bufferView": 1,
      "byteOffset": 1730496,
      "componentType": 5126,
      "count": 65532,
      "max": [
        1.0000001192092896,
        1.0000001192092896
      ],
      "min": [
        0.0,
        0.49999988079071045
      ],
      "type": "VEC2"
    },
    {
      "bufferView": 0,
      "byteOffset": 1298316,
      "componentType": 5125,
      "count": 98298,
      "type": "SCALAR"
    },
    {
      "bufferView": 2,
      "byteOffset": 6764256,
      "componentType": 5126,
      "count": 65534,
      "max": [
        0.979402482509613,
        0.9676534533500671,
        0.981875479221344
      ],
      "min": [
        -0.5145801305770874,
        -0.9736935496330261,
        -1.6110026836395264
      ],
      "type": "VEC3"
    },
    {
      "bufferView": 2,
      "byteOffset": 7550664,
      "componentType": 5126,
      "count": 65534,
      "max": [
        0.999657392501831,
        0.9994050860404968,
        0.9998719096183777
      ],
      "min": [
        -0.9995436668395996,
        -0.9994038343429565,
        -0.9998180270195007
      ],
      "type": "VEC3"
    },
    {
      "bufferView": 1,
      "byteOffset": 2254752,
      "componentType": 5126,
      "count": 65534,
      "max": [
        1.0000001192092896,
        1.0000001192092896
      ],
      "min": [
        0.0,
        0.010000006295740604
      ],
      "type": "VEC2"
    },
    {
      "bufferView": 0,
      "byteOffset": 1691508,
      "componentType": 5125,
      "count": 98304,
      "type": "SCALAR"
    },
    {
      "bufferView": 2,
      "byteOffset": 8337072,
      "componentType": 5126,
      "count": 58307,
      "max": [
        0.9873130917549133,
        0.9873130917549133,
        0.981875479221344
      ],
      "min": [
        -0.01613912545144558,
        -0.9901644587516785,
        -1.6110026836395264
      ],
      "type": "VEC3"
    },
    {
      "bufferView": 2,
      "byteOffset": 9036756,
      "componentType": 5126,
      "count": 58307,
      "max": [
        0.9997164011001587,
        0.9997395873069763,
        0.9944121241569519
      ],
      "min": [
        -0.9609619975090027,
        -0.9998070597648621,
        -0.9963037371635437
      ],
      "type": "VEC3"
    },
    {
      "bufferView": 1,
      "byteOffset": 2779024,
      "componentType": 5126,
      "count": 58307,
      "max": [
        1.0000001192092896,
        1.0000001192092896
      ],
      "min": [
        0.0,
        0.49999988079071045
      ],
      "type": "VEC2"
    },
    {
      "bufferView": 0,
      "byteOffset": 2084724,
      "componentType": 5125,
      "count": 87459,
      "type": "SCALAR"
    }
  ],
  "asset": {
    "extras": {
      "author": "Luall_Studio (https://sketchfab.com/luall_studio)",
      "license": "CC-BY-4.0 (http://creativecommons.org/licenses/by/4.0/)",
      "source": "https://sketchfab.com/3d-models/pacman-ghost-blue-d933e3c385544d8f8de7f0b7dd9372c8",
      "title": "Pacman Ghost blue"
    },
    "generator": "Sketchfab-11.30.0",
    "version": "2.0"
  },
  "bufferViews": [
    {
      "buffer": 0,
      "byteLength": 2434560,
      "name": "floatBufferViews",
      "target": 34963
    },
    {
      "buffer": 0,
      "byteLength": 3245480,
      "byteOffset": 2434560,
      "byteStride": 8,
      "name": "floatBufferViews",
      "target": 34962
    },
    {
      "buffer": 0,
      "byteLength": 9736440,
      "byteOffset": 5680040,
      "byteStride": 12,
      "name": "floatBufferViews",
      "target": 34962
    }
  ],
  "buffers": [
    {
      "byteLength": 15416480,
      "uri": "scene.bin"
    }
  ],
  "materials": [
    {
      "doubleSided": true,
      "name": "Materiais.001",
      "pbrMetallicRoughness": {
        "baseColorFactor": [
          0.0,
          0.0,
          0.0,
          1.0
        ],
        "metallicFactor": 0.0
      }
    },
    {
      "doubleSided": true,
      "name": "Materiais",
      "pbrMetallicRoughness": {
        "baseColorFactor": [
          0.0,
          0.457539,
          1.0,
          1.0
        ],
        "metallicFactor": 0.0,
        "roughnessFactor": 0.8939777096300564
      }
    }
  ],
  "meshes": [
    {
      "name": "Esfera UV.002_Materiais.001_0",
      "primitives": [
        {
          "attributes": {
            "NORMAL": 1,
            "POSITION": 0,
            "TEXCOORD_0": 2
          },
          "indices": 3,
          "material": 0,
          "mode": 4
        }
      ]
    },
    {
      "name": "Esfera UV.002_Materiais_0",
      "primitives": [
        {
          "attributes": {
            "NORMAL": 5,
            "POSITION": 4,
            "TEXCOORD_0": 6
          },
          "indices": 7,
          "material": 1,
          "mode": 4
        }
      ]
    },
    {
      "name": "Esfera UV.002_Materiais_0",
      "primitives": [
        {
          "attributes": {
            "NORMAL": 9,
            "POSITION": 8,
            "TEXCOORD_0": 10
          },
          "indices": 11,
          "material": 1,
          "mode": 4
        }
      ]
    },
    {
      "name": "Esfera UV.002_Materiais_0",
      "primitives": [
        {
          "attributes": {
            "NORMAL": 13,
            "POSITION": 12,
            "TEXCOORD_0": 14
          },
          "indices": 15,
          "material": 1,
          "mode": 4
        }
      ]
    },
    {
      "name": "Esfera UV.002_Materiais_0",
      "primitives": [
        {
          "attributes": {
            "NORMAL": 17,
            "POSITION": 16,
            "TEXCOORD_0": 18
          },
          "indices": 19,
          "material": 1,
          "mode": 4
        }
      ]
    },
    {
      "name": "Esfera UV.002_Materiais_0",
      "primitives": [
        {
          "attributes": {
            "NORMAL": 21,
            "POSITION": 20,
            "TEXCOORD_0": 22
          },
          "indices": 23,
          "material": 1,
          "mode": 4
        }
      ]
    },
    {
      "name": "Esfera UV.002_Materiais_0",
      "primitives": [
        {
          "attributes": {
            "NORMAL": 25,
            "POSITION": 24,
            "TEXCOORD_0": 26
          },
          "indices": 27,
          "material": 1,
          "mode": 4
        }
      ]
    }
  ],
  "nodes": [
    {
      "children": [
        1
      ],
      "matrix": [
        1.0,
        0.0,
        0.0,
        0.0,
        0.0,
        2.220446049250313e-16,
        -1.0,
        0.0,
        0.0,
        1.0,
        2.220446049250313e-16,
        0.0,
        0.0,
        0.0,
        0.0,
        1.0
      ],
      "name": "Sketchfab_model"
    },
    {
      "children": [
        2
      ],
      "matrix": [
        1.0,
        0.0,
        0.0,
        0.0,
        0.0,
        0.0,
        1.0,
        0.0,
        0.0,
        -1.0,
        0.0,
        0.0,
        0.0,
        0.0,
        0.0,
        1.0
      ],
      "name": "8b36d7797677489a95a33a609396fbcb.fbx"
    },
    {
      "children": [
        3
      ],
      "name": "RootNode"
    },
    {
      "children": [
        4,
        5,
        6,
        7,
        8,
        9,
        10
      ],
      "matrix": [
        100.0,
        0.0,
        0.0,
        0.0,
        0.0,
        -1.629206793918314e-05,
        -99.99999999999868,
        0.0,
        0.0,
        99.99999999999868,
        -1.629206793918314e-05,
        0.0,
        0.0,
        0.0,
        0.0,
        1.0
      ],
      "name": "Esfera UV.002"
    },
    {
      "mesh": 0,
      "name": "Esfera UV.002_Materiais.001_0"
    },
    {
      "mesh": 1,
      "name": "Esfera UV.002_Materiais_0"
    },
    {
      "mesh": 2,
      "name": "Esfera UV.002_Materiais_0"
    },
    {
      "mesh": 3,
      "name": "Esfera UV.002_Materiais_0"
    },
    {
      "mesh": 4,
      "name": "Esfera UV.002_Materiais_0"
    },
    {
      "mesh": 5,
      "name": "Esfera UV.002_Materiais_0"
    },
    {
      "mesh": 6,
      "name": "Esfera UV.002_Materiais_0"
    }
  ],
  "scene": 0,
  "scenes": [
    {
      "name": "Sketchfab_Scene",
      "nodes": [
        0
      ]
    }
  ]
}
